# xmcd
#
# Track frame offsets:
# 150
# 29736
# 64268
# 91154
# 129799
# 163729
# 199534
# 241287
# 276169
# 303697
#
# Disc length: 4571 seconds
#
#
# Revision: 0
# Processed by: cddbd v1.5.2PL0 Copyright (c) Steve Scherf et al.
# Submitted via: FreeRIP 2.945 
#
DISCID=8811d90a
DTITLE=Herriot-J1977 - Wise-Wonderful01
DYEAR=1977
DGENRE=Jungle
TTITLE0=WW 0101
TTITLE1=WW 0102
TTITLE2=WW 0103
TTITLE3=WW 0104
TTITLE4=WW 0105
TTITLE5=WW 0106
TTITLE6=WW 0107
TTITLE7=WW 0108
TTITLE8=WW 0109
TTITLE9=WW 0110
EXTD=All Things Wise and Wonderful 12 CDs\nby James Herriot - read by Christopher Timothy
EXTT0=
EXTT1=
EXTT2=
EXTT3=
EXTT4=
EXTT5=
EXTT6=
EXTT7=
EXTT8=
EXTT9=
PLAYORDER=
